<svg id="calender-icon" xmlns="http://www.w3.org/2000/svg" width="16.104"
    height="16.103" viewBox="0 0 16.104 16.103">
    <path data-name="Path 8735"
        d="M1325.567,613.187c0-.243-.011-.442,0-.639a.623.623,0,0,1,1.245,0c.013.2,0,.4,0,.615h2.834c0-.185-.006-.369,0-.552a.629.629,0,1,1,1.255,0c.008.177,0,.355,0,.554h2.862c0-.184-.005-.377,0-.571a.629.629,0,1,1,1.255.005c.006.186,0,.372,0,.589.3,0,.573-.005.842,0a2.508,2.508,0,0,1,2.489,2.518c.01,2.18,0,4.36,0,6.54,0,.458-.243.745-.622.749s-.635-.288-.635-.768q0-3.144,0-6.288a1.308,1.308,0,0,0-1.505-1.493h-.57c0,.219.007.414,0,.609a.627.627,0,1,1-1.254-.007c-.007-.187,0-.374,0-.581h-2.862c0,.181.006.364,0,.547a.63.63,0,1,1-1.255.013c-.008-.177,0-.355,0-.556h-2.83c0,.188.006.365,0,.541a.632.632,0,1,1-1.256-.014c-.006-.167,0-.334,0-.581a7.419,7.419,0,0,0-1.219.124,1.207,1.207,0,0,0-.823,1.275q0,2.893,0,5.785,0,1.839,0,3.679a1.3,1.3,0,0,0,1.475,1.492h10.627a1.286,1.286,0,0,0,1.484-1.3.629.629,0,1,1,1.254.093,2.513,2.513,0,0,1-2.452,2.458c-1.195.016-2.39,0-3.584,0q-3.694,0-7.389,0a2.523,2.523,0,0,1-2.674-2.683q0-4.748,0-9.5a2.522,2.522,0,0,1,2.661-2.664Z"
        transform="translate(-1322.26 -611.931)" fill="rgba(0,34,68,0.7)" />
    <path data-name="Path 8736"
        d="M1418.953,708.224a.626.626,0,1,1,.631-.606A.631.631,0,0,1,1418.953,708.224Z"
        transform="translate(-1412.29 -700.996)" fill="rgba(0,34,68,0.7)" />
    <path data-name="Path 8737"
        d="M1505.982,708.224a.626.626,0,1,1,.621-.616A.631.631,0,0,1,1505.982,708.224Z"
        transform="translate(-1493.838 -700.996)" fill="rgba(0,34,68,0.7)" />
    <path data-name="Path 8738"
        d="M1418.944,795.24a.626.626,0,1,1,.638-.6A.631.631,0,0,1,1418.944,795.24Z"
        transform="translate(-1412.288 -782.54)" fill="rgba(0,34,68,0.7)" />
    <path data-name="Path 8739"
        d="M1375.515,706.964a.627.627,0,1,1-.622.611A.623.623,0,0,1,1375.515,706.964Z"
        transform="translate(-1371.583 -700.988)" fill="rgba(0,34,68,0.7)" />
    <path data-name="Path 8740"
        d="M1463.155,707.6a.622.622,0,1,1-.63-.634A.622.622,0,0,1,1463.155,707.6Z"
        transform="translate(-1453.129 -700.991)" fill="rgba(0,34,68,0.7)" />
    <path data-name="Path 8741"
        d="M1418.943,751.784a.623.623,0,1,1,.639-.6A.623.623,0,0,1,1418.943,751.784Z"
        transform="translate(-1412.289 -741.824)" fill="rgba(0,34,68,0.7)" />
    <path data-name="Path 8742"
        d="M1505.96,751.783a.623.623,0,1,1,.637-.6A.623.623,0,0,1,1505.96,751.783Z"
        transform="translate(-1493.832 -741.823)" fill="rgba(0,34,68,0.7)" />
    <path data-name="Path 8743"
        d="M1375.52,793.986a.627.627,0,1,1-.632.6A.623.623,0,0,1,1375.52,793.986Z"
        transform="translate(-1371.578 -782.538)" fill="rgba(0,34,68,0.7)" />
    <path data-name="Path 8744"
        d="M1462.533,795.236a.627.627,0,1,1,.618-.615A.623.623,0,0,1,1462.533,795.236Z"
        transform="translate(-1453.126 -782.536)" fill="rgba(0,34,68,0.7)" />
    <path data-name="Path 8745"
        d="M1376.143,751.18a.622.622,0,1,1-.6-.638A.617.617,0,0,1,1376.143,751.18Z"
        transform="translate(-1371.589 -741.827)" fill="rgba(0,34,68,0.7)" />
    <path data-name="Path 8746"
        d="M1463.157,751.173a.623.623,0,1,1-.6-.633A.618.618,0,0,1,1463.157,751.173Z"
        transform="translate(-1453.131 -741.825)" fill="rgba(0,34,68,0.7)" />
</svg>