<svg xmlns="http://www.w3.org/2000/svg" width="16.111" height="16.111"
    viewBox="0 0 16.111 16.111">
    <path data-name="Path 8769"
        d="M446.7,210.67a8.055,8.055,0,1,1,8.072-8.023A8.055,8.055,0,0,1,446.7,210.67Zm.01-1.26a6.8,6.8,0,1,0-6.788-6.818A6.8,6.8,0,0,0,446.715,209.409Z"
        transform="translate(-438.666 -194.559)" fill="#4298ee" />
    <path data-name="Path 8770"
        d="M509.975,283.24c.173-.2.32-.39.488-.559q1.617-1.626,3.242-3.244a2.16,2.16,0,0,1,.265-.243.65.65,0,0,1,.912.894,1.951,1.951,0,0,1-.24.267q-2.037,2.04-4.077,4.077c-.475.475-.775.476-1.246.006-.641-.64-1.285-1.278-1.92-1.925a.649.649,0,0,1-.116-.81.622.622,0,0,1,.734-.288,1.161,1.161,0,0,1,.4.27C508.923,282.178,509.42,282.683,509.975,283.24Z"
        transform="translate(-503.037 -273.874)" fill="#4298ee" />
</svg>